<?xml version="1.0" encoding="UTF-8"?>
<!DOCTYPE svg PUBLIC "-//W3C//DTD SVG 1.1//EN" "http://www.w3.org/Graphics/SVG/1.1/DTD/svg11.dtd">
<!-- Creator: CorelDRAW -->
<svg xmlns="http://www.w3.org/2000/svg" xml:space="preserve" width="1181px" height="1181px" version="1.1" style="shape-rendering:geometricPrecision; text-rendering:geometricPrecision; image-rendering:optimizeQuality; fill-rule:evenodd; clip-rule:evenodd"
viewBox="0 0 1180.87 1180.87"
 xmlns:xlink="http://www.w3.org/1999/xlink"
 xmlns:xodm="http://www.corel.com/coreldraw/odm/2003">
 <defs>
  <style type="text/css">
   <![CDATA[
    .fil0 {fill:none}
    .fil1 {fill:#F8F9FA;fill-rule:nonzero}
   ]]>
  </style>
 </defs>
 <g id="Livello_x0020_1">
  <metadata id="CorelCorpID_0Corel-Layer"/>
  <rect class="fil0" width="1180.87" height="1180.87"/>
  <path class="fil1" d="M379.31 870.12l-34.4 -34.4c-67.7,-67.71 -105.82,-159.73 -105.82,-255.48 0,-84.58 29.57,-166.31 83.69,-231.38l150.09 -179.89 -23.44 0c-38.78,0 -70.12,-31.33 -70.12,-70.11 0,-38.79 31.34,-70.12 70.12,-70.12l280.46 0c38.78,0 70.11,31.33 70.11,70.12 0,38.78 -31.33,70.11 -70.11,70.11l-23.45 0 104.3 125.11 -188.22 188.22c-20.59,20.59 -20.59,53.9 0,74.27 20.6,20.38 53.91,20.6 74.28,0l180.33 -180.32c40.97,59.81 62.88,130.8 62.88,203.77 0,95.75 -38.12,187.77 -105.83,255.48l-34.18 34.62 123.14 154.03c10.96,13.8 17.09,30.89 17.09,48.64 0,42.95 -34.84,77.78 -77.78,77.78l-545.58 0c-42.95,0 -77.78,-34.83 -77.78,-77.78 0,-17.75 5.91,-34.84 17.09,-48.64l123.13 -154.03z"/>
 </g>
</svg>
